<svg width="34" height="33" viewBox="0 0 34 33" fill="none" xmlns="http://www.w3.org/2000/svg">
<path d="M27.5805 16.4997L26.7338 9.95337H22.3715L15.7548 16.4997H27.5805Z" fill="#543EE8"/>
<path d="M19.7418 9.95337H17.4276L10.8113 16.4997H13.1251L19.7418 9.95337Z" fill="#543EE8"/>
<path d="M16.1309 26.4398C10.8277 26.1593 6.61502 21.8167 6.61502 16.5C6.61502 11.0021 11.1199 6.54497 16.6766 6.54497C22.2333 6.54497 26.7382 11.0021 26.7382 16.5H33.3532C33.3532 7.38728 25.8869 0 16.6766 0C7.46635 0 0 7.38728 0 16.5C0 25.6127 7.46635 33 16.6766 33H22.7613L16.1309 26.4398Z" fill="#543EE8"/>
<path d="M23.828 26.4534L30.4444 33H32.6441L26.0277 26.4534H23.828Z" fill="#543EE8"/>
<path d="M25.3911 33H27.8149L21.1982 26.4534H18.7744L25.3911 33Z" fill="#543EE8"/>
</svg>
